# xmcd
#
# Track frame offsets:
#	150
#	13567
#	34590
#	47794
#	63628
#	82705
#	93843
#	107258
#	124005
#	140975
#	152208
#	163776
#	175656
#	188796
#
# Disc length: 2754 seconds
# Revision: 0
# Processed by: cddbd v1.5.2PL0 Copyright (c) Steve Scherf et al.
# Submitted via: dBpowerAMP V12.0
#
DISCID=ac0ac00e
DTITLE=Grasstowne - The Other Side of Towne
DYEAR=2009
DGENRE=Bluegrass
TTITLE0=Hard Workin' Man
TTITLE1=Lifting up the Cross
TTITLE2=Heartbreak Express
TTITLE3=Pay Your Dues
TTITLE4=God Bless Mommy
TTITLE5=Big, Big Heartaches
TTITLE6=The Other Side of Towne
TTITLE7=Tobaccoville Road
TTITLE8=Laura Lie
TTITLE9=Somebody's Gonna Let You Down
TTITLE10=Salvation of the Lord
TTITLE11=The Day Hell Freezes Over
TTITLE12=The Door
TTITLE13=Sorrow Ain't Far Behind
EXTD=
EXTT0=
EXTT1=
EXTT2=
EXTT3=
EXTT4=
EXTT5=
EXTT6=
EXTT7=
EXTT8=
EXTT9=
EXTT10=
EXTT11=
EXTT12=
EXTT13=
PLAYORDER=
